# xmcd
#
# Track frame offsets:
#  150
#  12900
#  29814
#  51767
#  64910
#  84063
#  100938
#  119857
#  134070
#  149185
#  166023
#  184881
#  200324
#  217997
#  235195
#
# Disc length: 3488 seconds
#
# Revision: 0
# Processed by: cddbd v1.4PL0 Copyright (c) Steve Scherf et al.
# Submitted via: AltoMP3_Maker 3.0
#
DISCID=e00d9e0f
DTITLE=Various Artist - Blues Stay Away From Me
DYEAR=1900
DGENRE=
TTITLE0=Roy D. Mercer - Big Nibble Blues
TTITLE1=Blues Stay Away From Me
TTITLE2=Layla
TTITLE3=Long Tall Mama
TTITLE4=Willin'
TTITLE5=Mississippi Moon
TTITLE6=Steamroller Blues
TTITLE7=Corrina, Corrina
TTITLE8=New Orleans
TTITLE9=Big Legged Girls
TTITLE10=Polk Salad Annie
TTITLE11=In The Gravel Yard
TTITLE12=Ain't Misbehavin'
TTITLE13=Minor Swing
TTITLE14=Big Nibble Blues
EXTD=
EXTT0=
EXTT1=
EXTT2=
EXTT3=
EXTT4=
EXTT5=
EXTT6=
EXTT7=
EXTT8=
EXTT9=
EXTT10=
EXTT11=
EXTT12=
EXTT13=
EXTT14=
PLAYORDER=
